<mxfile host="app.diagrams.net" agent="Mozilla/5.0 (Windows NT 10.0; Win64; x64) AppleWebKit/537.36 (KHTML, like Gecko) Chrome/139.0.0.0 Safari/537.36 Edg/139.0.0.0" version="28.1.0">
  <diagram name="Page-1" id="58cdce13-f638-feb5-8d6f-7d28b1aa9fa0">
    <mxGraphModel dx="1620" dy="767" grid="1" gridSize="10" guides="1" tooltips="1" connect="1" arrows="1" fold="1" page="1" pageScale="1" pageWidth="1100" pageHeight="850" background="none" math="0" shadow="0">
      <root>
        <mxCell id="0" />
        <mxCell id="1" parent="0" />
        <mxCell id="7-AAWcbsmadOOj0Ici0_-35" value="" style="rounded=0;whiteSpace=wrap;html=1;" vertex="1" parent="1">
          <mxGeometry x="450" y="370" width="570" height="420" as="geometry" />
        </mxCell>
        <mxCell id="382b91b5511bd0f7-1" value="" style="ellipse;html=1;shape=startState;fillColor=#000000;strokeColor=#ff0000;rounded=1;shadow=0;comic=0;labelBackgroundColor=none;fontFamily=Verdana;fontSize=12;fontColor=#000000;align=center;direction=south;" parent="1" vertex="1">
          <mxGeometry x="228" y="50" width="30" height="30" as="geometry" />
        </mxCell>
        <mxCell id="382b91b5511bd0f7-6" value="Configure signal SIGRTMIN handler:&lt;div&gt;handler := manejador_timer&lt;/div&gt;" style="rounded=1;whiteSpace=wrap;html=1;arcSize=24;fillColor=#ffffc0;strokeColor=#FF0000;shadow=0;comic=0;labelBackgroundColor=none;fontFamily=Verdana;fontSize=12;fontColor=#000000;align=center;" parent="1" vertex="1">
          <mxGeometry x="138" y="100" width="210" height="60" as="geometry" />
        </mxCell>
        <mxCell id="2a3bc250acf0617d-9" style="edgeStyle=orthogonalEdgeStyle;html=1;labelBackgroundColor=none;endArrow=open;endSize=8;strokeColor=#ff0000;fontFamily=Verdana;fontSize=12;align=left;" parent="1" source="382b91b5511bd0f7-1" target="382b91b5511bd0f7-6" edge="1">
          <mxGeometry relative="1" as="geometry" />
        </mxCell>
        <mxCell id="3cde6dad864a17aa-7" style="edgeStyle=elbowEdgeStyle;html=1;labelBackgroundColor=none;endArrow=open;endSize=8;strokeColor=#ff0000;fontFamily=Verdana;fontSize=12;align=left;entryX=0;entryY=0.5;exitX=1;exitY=0.5;exitDx=0;exitDy=0;entryDx=0;entryDy=0;" parent="1" source="7-AAWcbsmadOOj0Ici0_-5" target="-b5_aeEiTCpsvocbng9k-6" edge="1">
          <mxGeometry relative="1" as="geometry">
            <mxPoint x="800.9444444444443" y="-169" as="sourcePoint" />
            <mxPoint x="800.5" y="-294" as="targetPoint" />
            <Array as="points">
              <mxPoint x="400" y="110" />
            </Array>
          </mxGeometry>
        </mxCell>
        <mxCell id="24f968d109e7d6b4-3" value="" style="ellipse;html=1;shape=endState;fillColor=#000000;strokeColor=#ff0000;rounded=1;shadow=0;comic=0;labelBackgroundColor=none;fontFamily=Verdana;fontSize=12;fontColor=#000000;align=center;" parent="1" vertex="1">
          <mxGeometry x="793.5" y="262.5" width="30" height="30" as="geometry" />
        </mxCell>
        <mxCell id="-b5_aeEiTCpsvocbng9k-2" value="Configure Timer:&lt;div&gt;Period:= 1s&lt;/div&gt;&lt;div&gt;First value := 1s&lt;/div&gt;&lt;div&gt;Signal to send := SIGRTMIN&lt;/div&gt;" style="rounded=1;whiteSpace=wrap;html=1;arcSize=24;fillColor=#ffffc0;strokeColor=#ff0000;shadow=0;comic=0;labelBackgroundColor=none;fontFamily=Verdana;fontSize=12;fontColor=#000000;align=center;" parent="1" vertex="1">
          <mxGeometry x="132" y="180" width="222" height="60" as="geometry" />
        </mxCell>
        <mxCell id="-b5_aeEiTCpsvocbng9k-3" style="edgeStyle=orthogonalEdgeStyle;html=1;labelBackgroundColor=none;endArrow=open;endSize=8;strokeColor=#ff0000;fontFamily=Verdana;fontSize=12;align=left;entryX=0.5;entryY=0;entryDx=0;entryDy=0;exitX=0.5;exitY=1;exitDx=0;exitDy=0;" parent="1" target="-b5_aeEiTCpsvocbng9k-2" edge="1" source="382b91b5511bd0f7-6">
          <mxGeometry relative="1" as="geometry">
            <mxPoint x="242.70000000000005" y="181" as="sourcePoint" />
            <mxPoint x="242.70000000000005" y="231" as="targetPoint" />
          </mxGeometry>
        </mxCell>
        <mxCell id="-b5_aeEiTCpsvocbng9k-6" value="Does&amp;nbsp;&lt;span style=&quot;font-family: Verdana;&quot;&gt;pulses_uC_L4_EXE.pid&lt;/span&gt;&lt;span style=&quot;font-family: Verdana;&quot;&gt;&amp;nbsp;&lt;/span&gt;&lt;div&gt;&lt;span style=&quot;font-family: Verdana;&quot;&gt;exist ?&lt;/span&gt;&lt;/div&gt;" style="rhombus;whiteSpace=wrap;html=1;fillColor=#FFFFCC;strokeColor=#FF0000;" parent="1" vertex="1">
          <mxGeometry x="447" y="56" width="233" height="121" as="geometry" />
        </mxCell>
        <mxCell id="-b5_aeEiTCpsvocbng9k-17" style="edgeStyle=elbowEdgeStyle;html=1;labelBackgroundColor=none;endArrow=open;endSize=8;strokeColor=#ff0000;fontFamily=Verdana;fontSize=12;align=left;entryX=0.5;entryY=0;entryDx=0;entryDy=0;exitX=0.5;exitY=1.007;exitDx=0;exitDy=0;exitPerimeter=0;elbow=horizontal;" parent="1" source="-b5_aeEiTCpsvocbng9k-6" target="HqLHzUmemBixosrZDxwC-1" edge="1">
          <mxGeometry relative="1" as="geometry">
            <mxPoint x="613.5" y="173" as="sourcePoint" />
            <mxPoint x="611.5" y="181" as="targetPoint" />
            <Array as="points" />
          </mxGeometry>
        </mxCell>
        <mxCell id="7-AAWcbsmadOOj0Ici0_-13" value="Yes" style="edgeLabel;html=1;align=center;verticalAlign=middle;resizable=0;points=[];" vertex="1" connectable="0" parent="-b5_aeEiTCpsvocbng9k-17">
          <mxGeometry x="0.1912" y="-1" relative="1" as="geometry">
            <mxPoint x="1" y="-5" as="offset" />
          </mxGeometry>
        </mxCell>
        <mxCell id="-b5_aeEiTCpsvocbng9k-18" value="gpiod_set_line_value(0)" style="rounded=1;whiteSpace=wrap;html=1;arcSize=24;fillColor=#ffffc0;strokeColor=#ff0000;shadow=0;comic=0;labelBackgroundColor=none;fontFamily=Verdana;fontSize=12;fontColor=#000000;align=center;" parent="1" vertex="1">
          <mxGeometry x="727" y="86.5" width="163" height="60" as="geometry" />
        </mxCell>
        <mxCell id="-b5_aeEiTCpsvocbng9k-21" style="edgeStyle=elbowEdgeStyle;html=1;labelBackgroundColor=none;endArrow=open;endSize=8;strokeColor=#ff0000;fontFamily=Verdana;fontSize=12;align=left;entryX=0;entryY=0.5;entryDx=0;entryDy=0;exitX=1;exitY=0.5;exitDx=0;exitDy=0;elbow=vertical;" parent="1" source="-b5_aeEiTCpsvocbng9k-6" target="-b5_aeEiTCpsvocbng9k-18" edge="1">
          <mxGeometry relative="1" as="geometry">
            <mxPoint x="590" y="363" as="sourcePoint" />
            <mxPoint x="471" y="446.5" as="targetPoint" />
            <Array as="points" />
          </mxGeometry>
        </mxCell>
        <mxCell id="-b5_aeEiTCpsvocbng9k-23" value="No" style="edgeLabel;html=1;align=center;verticalAlign=middle;resizable=0;points=[];" parent="-b5_aeEiTCpsvocbng9k-21" vertex="1" connectable="0">
          <mxGeometry x="0.1729" relative="1" as="geometry">
            <mxPoint x="-6" as="offset" />
          </mxGeometry>
        </mxCell>
        <mxCell id="-b5_aeEiTCpsvocbng9k-25" value="&lt;h1 style=&quot;margin-top: 0px;&quot;&gt;pulses_uC&lt;/h1&gt;" style="text;html=1;whiteSpace=wrap;overflow=hidden;rounded=0;" parent="1" vertex="1">
          <mxGeometry width="130" height="50" as="geometry" />
        </mxCell>
        <mxCell id="HqLHzUmemBixosrZDxwC-1" value="wait for SIGRTMIN signals" style="rounded=1;whiteSpace=wrap;html=1;arcSize=24;fillColor=#ffffc0;strokeColor=#ff0000;shadow=0;comic=0;labelBackgroundColor=none;fontFamily=Verdana;fontSize=12;fontColor=#000000;align=center;" parent="1" vertex="1">
          <mxGeometry x="517.75" y="240" width="91.5" height="57" as="geometry" />
        </mxCell>
        <mxCell id="HqLHzUmemBixosrZDxwC-2" style="edgeStyle=elbowEdgeStyle;html=1;labelBackgroundColor=none;endArrow=open;endSize=8;strokeColor=#ff0000;fontFamily=Verdana;fontSize=12;align=left;exitX=0;exitY=0.5;exitDx=0;exitDy=0;entryX=0;entryY=0.5;entryDx=0;entryDy=0;" parent="1" source="HqLHzUmemBixosrZDxwC-1" target="-b5_aeEiTCpsvocbng9k-6" edge="1">
          <mxGeometry relative="1" as="geometry">
            <mxPoint x="506.5" y="330.5" as="sourcePoint" />
            <mxPoint x="390" y="150" as="targetPoint" />
            <Array as="points">
              <mxPoint x="400" y="200" />
            </Array>
          </mxGeometry>
        </mxCell>
        <mxCell id="7-AAWcbsmadOOj0Ici0_-1" value="Start Timer" style="rounded=1;whiteSpace=wrap;html=1;arcSize=24;fillColor=#ffffc0;strokeColor=#ff0000;shadow=0;comic=0;labelBackgroundColor=none;fontFamily=Verdana;fontSize=12;fontColor=#000000;align=center;" vertex="1" parent="1">
          <mxGeometry x="193" y="262.5" width="100" height="45" as="geometry" />
        </mxCell>
        <mxCell id="7-AAWcbsmadOOj0Ici0_-2" value="Open gpiod chip &quot;/dev/gpiochip0&quot;" style="rounded=1;whiteSpace=wrap;html=1;arcSize=24;fillColor=#ffffc0;strokeColor=#ff0000;shadow=0;comic=0;labelBackgroundColor=none;fontFamily=Verdana;fontSize=12;fontColor=#000000;align=center;" vertex="1" parent="1">
          <mxGeometry x="188" y="333" width="110" height="60" as="geometry" />
        </mxCell>
        <mxCell id="7-AAWcbsmadOOj0Ici0_-3" value="Get gpiod line 35" style="rounded=1;whiteSpace=wrap;html=1;arcSize=24;fillColor=#ffffc0;strokeColor=#ff0000;shadow=0;comic=0;labelBackgroundColor=none;fontFamily=Verdana;fontSize=12;fontColor=#000000;align=center;" vertex="1" parent="1">
          <mxGeometry x="193" y="420" width="100" height="60" as="geometry" />
        </mxCell>
        <mxCell id="7-AAWcbsmadOOj0Ici0_-4" value="Gpiod line request output" style="rounded=1;whiteSpace=wrap;html=1;arcSize=24;fillColor=#ffffc0;strokeColor=#ff0000;shadow=0;comic=0;labelBackgroundColor=none;fontFamily=Verdana;fontSize=12;fontColor=#000000;align=center;" vertex="1" parent="1">
          <mxGeometry x="193" y="502" width="100" height="60" as="geometry" />
        </mxCell>
        <mxCell id="7-AAWcbsmadOOj0Ici0_-5" value="Create pulses_uC_L4_EXE.pid&amp;nbsp;" style="rounded=1;whiteSpace=wrap;html=1;arcSize=24;fillColor=#ffffc0;strokeColor=#ff0000;shadow=0;comic=0;labelBackgroundColor=none;fontFamily=Verdana;fontSize=12;fontColor=#000000;align=center;" vertex="1" parent="1">
          <mxGeometry x="128" y="590" width="230" height="70" as="geometry" />
        </mxCell>
        <mxCell id="7-AAWcbsmadOOj0Ici0_-7" style="edgeStyle=orthogonalEdgeStyle;html=1;labelBackgroundColor=none;endArrow=open;endSize=8;strokeColor=#ff0000;fontFamily=Verdana;fontSize=12;align=left;exitX=0.5;exitY=1;exitDx=0;exitDy=0;" edge="1" parent="1" source="-b5_aeEiTCpsvocbng9k-2" target="7-AAWcbsmadOOj0Ici0_-1">
          <mxGeometry relative="1" as="geometry">
            <mxPoint x="290" y="160" as="sourcePoint" />
            <mxPoint x="290" y="180" as="targetPoint" />
          </mxGeometry>
        </mxCell>
        <mxCell id="7-AAWcbsmadOOj0Ici0_-8" style="edgeStyle=orthogonalEdgeStyle;html=1;labelBackgroundColor=none;endArrow=open;endSize=8;strokeColor=#ff0000;fontFamily=Verdana;fontSize=12;align=left;exitX=0.5;exitY=1;exitDx=0;exitDy=0;entryX=0.5;entryY=0;entryDx=0;entryDy=0;" edge="1" parent="1" source="7-AAWcbsmadOOj0Ici0_-1" target="7-AAWcbsmadOOj0Ici0_-2">
          <mxGeometry relative="1" as="geometry">
            <mxPoint x="330" y="320" as="sourcePoint" />
            <mxPoint x="330" y="343" as="targetPoint" />
            <Array as="points">
              <mxPoint x="243" y="330" />
              <mxPoint x="243" y="330" />
            </Array>
          </mxGeometry>
        </mxCell>
        <mxCell id="7-AAWcbsmadOOj0Ici0_-9" style="edgeStyle=orthogonalEdgeStyle;html=1;labelBackgroundColor=none;endArrow=open;endSize=8;strokeColor=#ff0000;fontFamily=Verdana;fontSize=12;align=left;entryX=0.5;entryY=0;entryDx=0;entryDy=0;exitX=0.5;exitY=1;exitDx=0;exitDy=0;" edge="1" parent="1" source="7-AAWcbsmadOOj0Ici0_-2" target="7-AAWcbsmadOOj0Ici0_-3">
          <mxGeometry relative="1" as="geometry">
            <mxPoint x="243" y="400" as="sourcePoint" />
            <mxPoint x="340" y="363" as="targetPoint" />
          </mxGeometry>
        </mxCell>
        <mxCell id="7-AAWcbsmadOOj0Ici0_-11" style="edgeStyle=orthogonalEdgeStyle;html=1;labelBackgroundColor=none;endArrow=open;endSize=8;strokeColor=#ff0000;fontFamily=Verdana;fontSize=12;align=left;entryX=0.5;entryY=0;entryDx=0;entryDy=0;exitX=0.5;exitY=1;exitDx=0;exitDy=0;" edge="1" parent="1" source="7-AAWcbsmadOOj0Ici0_-3" target="7-AAWcbsmadOOj0Ici0_-4">
          <mxGeometry relative="1" as="geometry">
            <mxPoint x="320" y="410" as="sourcePoint" />
            <mxPoint x="320" y="437" as="targetPoint" />
          </mxGeometry>
        </mxCell>
        <mxCell id="7-AAWcbsmadOOj0Ici0_-12" style="edgeStyle=orthogonalEdgeStyle;html=1;labelBackgroundColor=none;endArrow=open;endSize=8;strokeColor=#ff0000;fontFamily=Verdana;fontSize=12;align=left;entryX=0.5;entryY=0;entryDx=0;entryDy=0;exitX=0.5;exitY=1;exitDx=0;exitDy=0;" edge="1" parent="1" source="7-AAWcbsmadOOj0Ici0_-4" target="7-AAWcbsmadOOj0Ici0_-5">
          <mxGeometry relative="1" as="geometry">
            <mxPoint x="410" y="510" as="sourcePoint" />
            <mxPoint x="410" y="532" as="targetPoint" />
          </mxGeometry>
        </mxCell>
        <mxCell id="7-AAWcbsmadOOj0Ici0_-14" value="gpiod release line and close chip" style="rounded=1;whiteSpace=wrap;html=1;arcSize=24;fillColor=#ffffc0;strokeColor=#ff0000;shadow=0;comic=0;labelBackgroundColor=none;fontFamily=Verdana;fontSize=12;fontColor=#000000;align=center;" vertex="1" parent="1">
          <mxGeometry x="728.5" y="170" width="160" height="60" as="geometry" />
        </mxCell>
        <mxCell id="7-AAWcbsmadOOj0Ici0_-15" style="edgeStyle=elbowEdgeStyle;html=1;labelBackgroundColor=none;endArrow=open;endSize=8;strokeColor=#ff0000;fontFamily=Verdana;fontSize=12;align=left;exitX=0.5;exitY=1;exitDx=0;exitDy=0;elbow=horizontal;entryX=0.5;entryY=0;entryDx=0;entryDy=0;" edge="1" parent="1" source="-b5_aeEiTCpsvocbng9k-18" target="7-AAWcbsmadOOj0Ici0_-14">
          <mxGeometry relative="1" as="geometry">
            <mxPoint x="760" y="240" as="sourcePoint" />
            <mxPoint x="810" y="170" as="targetPoint" />
            <Array as="points">
              <mxPoint x="809" y="220" />
            </Array>
          </mxGeometry>
        </mxCell>
        <mxCell id="7-AAWcbsmadOOj0Ici0_-17" style="edgeStyle=elbowEdgeStyle;html=1;labelBackgroundColor=none;endArrow=open;endSize=8;strokeColor=#ff0000;fontFamily=Verdana;fontSize=12;align=left;exitX=0.5;exitY=1;exitDx=0;exitDy=0;elbow=horizontal;entryX=0.5;entryY=0;entryDx=0;entryDy=0;" edge="1" parent="1" source="7-AAWcbsmadOOj0Ici0_-14" target="24f968d109e7d6b4-3">
          <mxGeometry relative="1" as="geometry">
            <mxPoint x="850" y="160" as="sourcePoint" />
            <mxPoint x="850" y="183" as="targetPoint" />
            <Array as="points">
              <mxPoint x="809" y="250" />
            </Array>
          </mxGeometry>
        </mxCell>
        <mxCell id="7-AAWcbsmadOOj0Ici0_-18" value="&lt;h1 style=&quot;margin-top: 0px;&quot;&gt;manejador_timer&lt;/h1&gt;" style="text;html=1;whiteSpace=wrap;overflow=hidden;rounded=0;" vertex="1" parent="1">
          <mxGeometry x="460" y="382" width="220" height="78" as="geometry" />
        </mxCell>
        <mxCell id="7-AAWcbsmadOOj0Ici0_-19" value="" style="ellipse;html=1;shape=startState;fillColor=#000000;strokeColor=#ff0000;rounded=1;shadow=0;comic=0;labelBackgroundColor=none;fontFamily=Verdana;fontSize=12;fontColor=#000000;align=center;direction=south;" vertex="1" parent="1">
          <mxGeometry x="720" y="418" width="30" height="30" as="geometry" />
        </mxCell>
        <mxCell id="7-AAWcbsmadOOj0Ici0_-20" value="Initialize one time&amp;nbsp;&lt;div&gt;hdl_state :=0&lt;/div&gt;" style="rounded=1;whiteSpace=wrap;html=1;arcSize=24;fillColor=#ffffc0;strokeColor=#FF0000;shadow=0;comic=0;labelBackgroundColor=none;fontFamily=Verdana;fontSize=12;fontColor=#000000;align=center;" vertex="1" parent="1">
          <mxGeometry x="665" y="470" width="140" height="60" as="geometry" />
        </mxCell>
        <mxCell id="7-AAWcbsmadOOj0Ici0_-21" value="hdl_state = 1 ?" style="rhombus;whiteSpace=wrap;html=1;fillColor=#FFFFCC;strokeColor=#FF0000;" vertex="1" parent="1">
          <mxGeometry x="669.25" y="561" width="131.5" height="50" as="geometry" />
        </mxCell>
        <mxCell id="7-AAWcbsmadOOj0Ici0_-22" value="gpiod_set_line_value(0)&lt;div&gt;hdl_state := 0&lt;/div&gt;" style="rounded=1;whiteSpace=wrap;html=1;arcSize=24;fillColor=#ffffc0;strokeColor=#ff0000;shadow=0;comic=0;labelBackgroundColor=none;fontFamily=Verdana;fontSize=12;fontColor=#000000;align=center;" vertex="1" parent="1">
          <mxGeometry x="550" y="640" width="163" height="60" as="geometry" />
        </mxCell>
        <mxCell id="7-AAWcbsmadOOj0Ici0_-23" value="gpiod_set_line_value(1)&lt;div&gt;hdl_state := 1&lt;/div&gt;" style="rounded=1;whiteSpace=wrap;html=1;arcSize=24;fillColor=#ffffc0;strokeColor=#ff0000;shadow=0;comic=0;labelBackgroundColor=none;fontFamily=Verdana;fontSize=12;fontColor=#000000;align=center;" vertex="1" parent="1">
          <mxGeometry x="780" y="640" width="163" height="60" as="geometry" />
        </mxCell>
        <mxCell id="7-AAWcbsmadOOj0Ici0_-24" style="edgeStyle=elbowEdgeStyle;html=1;labelBackgroundColor=none;endArrow=open;endSize=8;strokeColor=#ff0000;fontFamily=Verdana;fontSize=12;align=left;exitX=1;exitY=0.5;exitDx=0;exitDy=0;elbow=horizontal;entryX=0.5;entryY=0;entryDx=0;entryDy=0;" edge="1" parent="1" source="7-AAWcbsmadOOj0Ici0_-19" target="7-AAWcbsmadOOj0Ici0_-20">
          <mxGeometry relative="1" as="geometry">
            <mxPoint x="890" y="280" as="sourcePoint" />
            <mxPoint x="890" y="313" as="targetPoint" />
            <Array as="points" />
          </mxGeometry>
        </mxCell>
        <mxCell id="7-AAWcbsmadOOj0Ici0_-25" style="edgeStyle=elbowEdgeStyle;html=1;labelBackgroundColor=none;endArrow=open;endSize=8;strokeColor=#ff0000;fontFamily=Verdana;fontSize=12;align=left;exitX=0.5;exitY=1;exitDx=0;exitDy=0;elbow=horizontal;entryX=0.5;entryY=0;entryDx=0;entryDy=0;" edge="1" parent="1" source="7-AAWcbsmadOOj0Ici0_-20" target="7-AAWcbsmadOOj0Ici0_-21">
          <mxGeometry relative="1" as="geometry">
            <mxPoint x="840" y="470" as="sourcePoint" />
            <mxPoint x="840" y="492" as="targetPoint" />
            <Array as="points" />
          </mxGeometry>
        </mxCell>
        <mxCell id="7-AAWcbsmadOOj0Ici0_-26" style="edgeStyle=elbowEdgeStyle;html=1;labelBackgroundColor=none;endArrow=open;endSize=8;strokeColor=#ff0000;fontFamily=Verdana;fontSize=12;align=left;exitX=0;exitY=0.5;exitDx=0;exitDy=0;elbow=horizontal;entryX=0.5;entryY=0;entryDx=0;entryDy=0;" edge="1" parent="1" source="7-AAWcbsmadOOj0Ici0_-21" target="7-AAWcbsmadOOj0Ici0_-22">
          <mxGeometry relative="1" as="geometry">
            <mxPoint x="850" y="570" as="sourcePoint" />
            <mxPoint x="850" y="601" as="targetPoint" />
            <Array as="points">
              <mxPoint x="632" y="610" />
            </Array>
          </mxGeometry>
        </mxCell>
        <mxCell id="7-AAWcbsmadOOj0Ici0_-29" value="Yes" style="edgeLabel;html=1;align=center;verticalAlign=middle;resizable=0;points=[];" vertex="1" connectable="0" parent="7-AAWcbsmadOOj0Ici0_-26">
          <mxGeometry x="-0.3515" y="-1" relative="1" as="geometry">
            <mxPoint y="-15" as="offset" />
          </mxGeometry>
        </mxCell>
        <mxCell id="7-AAWcbsmadOOj0Ici0_-28" style="edgeStyle=elbowEdgeStyle;html=1;labelBackgroundColor=none;endArrow=open;endSize=8;strokeColor=#ff0000;fontFamily=Verdana;fontSize=12;align=left;exitX=1;exitY=0.5;exitDx=0;exitDy=0;elbow=horizontal;entryX=0.5;entryY=0;entryDx=0;entryDy=0;" edge="1" parent="1" source="7-AAWcbsmadOOj0Ici0_-21" target="7-AAWcbsmadOOj0Ici0_-23">
          <mxGeometry relative="1" as="geometry">
            <mxPoint x="827" y="610" as="sourcePoint" />
            <mxPoint x="790" y="664" as="targetPoint" />
            <Array as="points">
              <mxPoint x="862" y="600" />
            </Array>
          </mxGeometry>
        </mxCell>
        <mxCell id="7-AAWcbsmadOOj0Ici0_-30" value="No" style="edgeLabel;html=1;align=center;verticalAlign=middle;resizable=0;points=[];" vertex="1" connectable="0" parent="7-AAWcbsmadOOj0Ici0_-28">
          <mxGeometry x="-0.1315" y="3" relative="1" as="geometry">
            <mxPoint y="-13" as="offset" />
          </mxGeometry>
        </mxCell>
        <mxCell id="7-AAWcbsmadOOj0Ici0_-31" value="" style="ellipse;html=1;shape=endState;fillColor=#000000;strokeColor=#ff0000;rounded=1;shadow=0;comic=0;labelBackgroundColor=none;fontFamily=Verdana;fontSize=12;fontColor=#000000;align=center;" vertex="1" parent="1">
          <mxGeometry x="727" y="740" width="30" height="30" as="geometry" />
        </mxCell>
        <mxCell id="7-AAWcbsmadOOj0Ici0_-32" style="edgeStyle=elbowEdgeStyle;html=1;labelBackgroundColor=none;endArrow=open;endSize=8;strokeColor=#ff0000;fontFamily=Verdana;fontSize=12;align=left;elbow=horizontal;entryX=0;entryY=0.5;entryDx=0;entryDy=0;" edge="1" parent="1" target="7-AAWcbsmadOOj0Ici0_-31">
          <mxGeometry relative="1" as="geometry">
            <mxPoint x="630" y="700" as="sourcePoint" />
            <mxPoint x="760" y="704" as="targetPoint" />
            <Array as="points">
              <mxPoint x="630" y="740" />
            </Array>
          </mxGeometry>
        </mxCell>
        <mxCell id="7-AAWcbsmadOOj0Ici0_-34" style="edgeStyle=elbowEdgeStyle;html=1;labelBackgroundColor=none;endArrow=open;endSize=8;strokeColor=#ff0000;fontFamily=Verdana;fontSize=12;align=left;elbow=horizontal;entryX=1;entryY=0.5;entryDx=0;entryDy=0;exitX=0.5;exitY=1;exitDx=0;exitDy=0;" edge="1" parent="1" source="7-AAWcbsmadOOj0Ici0_-23" target="7-AAWcbsmadOOj0Ici0_-31">
          <mxGeometry relative="1" as="geometry">
            <mxPoint x="940" y="750" as="sourcePoint" />
            <mxPoint x="1037" y="805" as="targetPoint" />
            <Array as="points">
              <mxPoint x="862" y="760" />
            </Array>
          </mxGeometry>
        </mxCell>
      </root>
    </mxGraphModel>
  </diagram>
</mxfile>
